<svg xmlns="http://www.w3.org/2000/svg" width="800" height="450" viewBox="0 0 800 450"><rect width="100%" height="100%" fill="#F5F7FB"/><text x="50%" y="12%" dominant-baseline="middle" text-anchor="middle" font-family="Arial" font-size="22" fill="#11181C">RACI 示例表</text><g stroke="#1F2937" stroke-width="1"><rect x="120" y="100" width="560" height="240" fill="#fff"/><g fill="#E5E7EB"><rect x="120" y="100" width="160" height="40"/><rect x="280" y="100" width="140" height="40"/><rect x="420" y="100" width="140" height="40"/><rect x="560" y="100" width="120" height="40"/></g><g fill="#11181C" font-family="Arial" font-size="14"><text x="200" y="125" text-anchor="middle">任务</text><text x="350" y="125" text-anchor="middle">角色 A</text><text x="490" y="125" text-anchor="middle">角色 B</text><text x="620" y="125" text-anchor="middle">角色 C</text></g><g fill="#CBD5E1"><rect x="120" y="140" width="560" height="40"/><rect x="120" y="180" width="560" height="40"/><rect x="120" y="220" width="560" height="40"/><rect x="120" y="260" width="560" height="40"/></g><g fill="#11181C" font-family="Arial" font-size="13"><text x="200" y="167" text-anchor="middle">需求澄清</text><text x="200" y="207" text-anchor="middle">方案评审</text><text x="200" y="247" text-anchor="middle">实现交付</text><text x="200" y="287" text-anchor="middle">验收上线</text><text x="350" y="167" text-anchor="middle">A</text><text x="490" y="167" text-anchor="middle">R</text><text x="620" y="167" text-anchor="middle">C</text><text x="350" y="207" text-anchor="middle">C</text><text x="490" y="207" text-anchor="middle">A</text><text x="620" y="207" text-anchor="middle">I</text><text x="350" y="247" text-anchor="middle">R</text><text x="490" y="247" text-anchor="middle">C</text><text x="620" y="247" text-anchor="middle">I</text><text x="350" y="287" text-anchor="middle">I</text><text x="490" y="287" text-anchor="middle">R</text><text x="620" y="287" text-anchor="middle">A</text></g></g></svg>
